<svg width="81" height="25" viewBox="0 0 81 25" fill="none" xmlns="http://www.w3.org/2000/svg">
<g clip-path="url(#clip0_141_93)">
<path d="M44.0107 15.8932C44.0107 18.3661 40.9332 18.2196 40.9332 18.2196H37.8557V13.7501H40.9332C44.1023 13.7319 44.0107 15.8932 44.0107 15.8932ZM37.8559 6.93564H40.2007C42.6369 7.06405 42.5453 8.87726 42.5453 8.87726C42.5453 11.1304 39.8525 11.167 39.8525 11.167H37.8559V6.93564ZM43.443 12.0464C43.443 12.0464 45.5496 11.1488 45.5313 8.76745C45.5313 8.76745 45.8516 4.86591 40.6816 4.38954H34.9434V20.7475H41.5198C41.5198 20.7475 47.0153 20.7659 47.0153 16.1313C47.0153 16.1313 47.1432 12.9808 43.443 12.0464ZM28.5955 1.18396H52.7486V23.9447H28.5955V1.18396ZM16.1581 15.8932C16.1581 18.3661 13.0806 18.2196 13.0806 18.2196H10.0031V13.7501H13.0806C16.2497 13.7319 16.1581 15.8932 16.1581 15.8932ZM10.0033 6.93564H12.3481C14.7843 7.06405 14.6927 8.87726 14.6927 8.87726C14.6927 11.1304 11.9999 11.167 11.9999 11.167H10.0033V6.93564ZM15.5905 12.0464C15.5905 12.0464 17.697 11.1488 17.6787 8.76745C17.6787 8.76745 17.9989 4.86591 12.829 4.38954H7.09084V20.7475H13.6672C13.6672 20.7475 19.1627 20.7659 19.1627 16.1313C19.1627 16.1313 19.2907 12.9808 15.5905 12.0464ZM0.74292 1.18396H24.896V23.9447H0.74292V1.18396ZM75.6737 5.56216V8.58462C75.6737 8.58462 72.7244 6.77109 69.4639 6.73447C69.4639 6.73447 63.3824 6.61575 63.1075 12.5644C63.1075 12.5644 62.8877 18.0367 69.3906 18.3482C69.3906 18.3482 72.1202 18.6779 75.8201 16.3149V19.4472C75.8201 19.4472 70.8562 22.3963 65.1042 20.125C65.1042 20.125 60.2682 18.3577 60.0849 12.5644C60.0849 12.5644 59.8833 6.60623 66.3315 4.62796C66.3315 4.62796 68.0536 3.9685 71.1493 4.26161C71.1493 4.26161 72.9993 4.44471 75.6737 5.56216ZM56.4483 23.9448H80.6013V1.18412H56.4483V23.9448Z" fill="black"/>
</g>
<defs>
<clipPath id="clip0_141_93">
<rect width="80.2262" height="23.5526" fill="white" transform="translate(0.425171 0.782898)"/>
</clipPath>
</defs>
</svg>
