<svg width="198" height="25" viewBox="0 0 198 25" fill="none" xmlns="http://www.w3.org/2000/svg">
<g clip-path="url(#clip0_141_95)">
<path d="M12.9087 5.05652C12.4243 5.05652 12.0201 5.00039 11.562 4.94544V13.0746C11.562 13.2681 11.5349 13.3231 11.4265 13.4056L6.89811 16.3547C7.57211 16.6856 8.38073 16.9067 9.21766 16.9067C12.0738 16.9067 15.3076 15.307 16.8185 11.3117C16.899 11.0907 17.087 11.0357 17.087 11.4213V11.6972C17.087 16.078 13.8249 20.0183 9.00178 20.0183C3.74559 20.0183 0.592285 15.9669 0.592285 11.7517C0.592285 8.58316 2.28808 5.63435 6.14364 4.3943C6.30616 4.33778 6.33324 4.42021 6.2245 4.50382C4.52714 5.85339 3.61016 8.0587 3.61016 10.2632C3.61016 12.6055 4.52714 14.9204 6.57505 16.1616L7.70714 15.2784C8.08595 14.9753 8.16522 14.7005 8.16522 14.2585V4.22786C6.92598 3.75956 5.82175 3.4836 4.79603 3.4836C3.39505 3.4836 2.12752 4.11638 0.888263 5.66104C0.754013 5.82591 0.671971 5.82591 0.671971 5.66104C0.834484 2.54738 3.55639 0.78329 6.25198 0.78329C9.35228 0.78329 12.2088 2.32795 15.3366 2.32795C16.4404 2.32795 17.5738 2.07829 18.5166 1.55503C18.6509 1.50008 18.6776 1.60999 18.6238 1.71951C17.6542 4.20038 15.2813 5.05535 12.9095 5.05535L12.9087 5.05652ZM27.8725 19.552C27.763 19.66 27.763 19.6332 27.6817 19.5791L25.5129 17.654C25.2955 17.4632 25.1875 17.3015 25.1875 16.9486V9.51894C25.1875 9.43812 25.1875 9.35569 25.0792 9.2748L24.3471 8.62357C24.2646 8.57094 24.1567 8.54386 24.0488 8.59803L22.667 9.24771V16.2448C22.667 16.3527 22.6388 16.4611 22.7478 16.542L23.372 17.0837C23.5345 17.2187 23.8042 17.3824 24.0488 17.3012L24.2646 17.2187C24.5359 17.1104 24.5916 17.2725 24.4279 17.4091L21.9349 19.5516C21.8254 19.6595 21.7983 19.6329 21.7174 19.5787L19.5211 17.6266C19.2514 17.4091 19.2514 17.3549 19.2514 17.0024V4.96428C19.2514 4.82924 19.2514 4.80059 19.1153 4.69263L18.844 4.44808C18.5736 4.2051 18.466 4.25888 18.1131 4.42257L17.5702 4.66555C17.489 4.69263 17.4081 4.58429 17.5431 4.44808L20.4158 2.03551C20.5253 1.92756 20.5253 1.95464 20.6062 2.00881L22.3416 3.60921C22.559 3.82551 22.6674 3.96094 22.6674 4.31305V8.84106L26.2717 6.56389C26.3813 6.50933 26.4892 6.50933 26.5704 6.59059L28.333 8.21846C28.5759 8.43478 28.6301 8.59803 28.6301 8.86815V16.2978C28.6301 16.434 28.6301 16.4611 28.7663 16.5694L29.4443 17.1382C29.7147 17.3828 29.8227 17.3286 30.1752 17.1665L30.718 16.9223C30.7989 16.8953 30.8814 17.0032 30.7448 17.1382L27.8725 19.552ZM39.365 10.4344L34.6168 13.4904V15.8299C34.6168 16.0493 34.6439 16.1333 34.832 16.2154L36.3609 17.0413C36.6278 17.1787 37.0851 17.3168 37.354 17.1508L38.7758 16.299C39.0164 16.1604 39.2049 16.2428 39.0703 16.3544L35.1809 19.5747C35.0996 19.6568 35.1275 19.6297 35.0204 19.5747L31.5589 17.7023C31.2904 17.5653 31.2103 17.5092 31.2103 17.1249V8.42492C31.2103 8.2864 31.2649 8.23179 31.4239 8.17688L37.0851 6.30442C37.1656 6.27734 37.2453 6.24985 37.2986 6.35977L39.4184 10.2137C39.4718 10.2974 39.4718 10.3794 39.365 10.4344ZM34.7978 7.84986L34.7428 7.87656V13.3455L36.6161 11.7101C36.7236 11.6262 36.7236 11.5685 36.6706 11.4856L34.7978 7.84986ZM58.9443 16.1337L55.0408 19.5084C54.9317 19.5897 54.8504 19.6438 54.7425 19.5897C52.4096 18.4199 50.4041 17.7659 48.3716 17.7659C46.6899 17.7659 45.0369 18.337 43.1935 19.5626C43.0302 19.6709 42.9223 19.6438 43.0302 19.4542C44.0069 17.8747 45.3085 16.2161 46.9348 15.453C46.9616 15.3447 46.9898 14.9907 46.9898 14.5V6.49912C46.9898 6.39039 47.0444 6.33622 47.1523 6.28205L50.2424 4.40412C49.5645 4.53993 48.8057 4.64985 48.1545 4.64985C45.336 4.64985 43.8985 3.23434 43.3831 1.00233C43.356 0.892418 43.4098 0.865332 43.4911 0.892418C44.9293 1.60017 46.1219 1.84551 47.2878 1.84551C49.2391 1.84551 52.0308 0.784076 53.7396 0.784076C57.1822 0.784076 59.0813 2.22706 59.0813 6.93563V15.8338C59.0813 15.9712 59.026 16.0521 58.9451 16.1337H58.9443ZM55.5476 7.07106C55.5476 4.59686 54.7602 3.92443 53.5382 3.92443C52.6408 3.92443 51.5002 4.27419 50.2785 4.5419V12.6079C50.2785 12.7433 50.2243 12.8505 50.1431 12.9054L46.9117 15.457C47.7518 15.1088 48.6762 14.9478 49.599 14.9478C51.5814 14.9478 53.6744 15.6725 55.3581 16.4536C55.4935 16.5337 55.5476 16.4536 55.5476 16.3182V7.07106ZM68.7606 19.5488C68.6519 19.6588 68.6245 19.6313 68.5428 19.5764L66.0572 17.3702L63.1076 19.5764C62.9989 19.6583 62.9714 19.6313 62.8627 19.5488L60.9785 17.8389C60.6778 17.5916 60.6507 17.5351 60.6507 17.2042V9.15549C60.6507 9.0169 60.7594 8.98981 60.814 8.96192L67.1501 6.31541C67.2588 6.26045 67.3676 6.26045 67.4778 6.37037L69.1705 8.08029C69.4155 8.32762 69.4994 8.46658 69.4994 8.63144V16.4065L69.9909 16.8473C70.5911 17.3706 70.6724 17.3431 70.9459 17.2042L71.3287 17.0118C71.5748 16.8749 71.7652 16.9848 71.5462 17.1771L68.7606 19.5488ZM66.1463 9.25441C66.1463 9.08873 66.118 9.00711 65.9834 8.87006L65.0021 7.88205C64.9479 7.82592 64.9479 7.85458 64.865 7.88205L64.1836 8.18314V16.1219C64.1836 16.3959 64.2393 16.5329 64.4305 16.6978L64.785 17.0263C65.0292 17.2466 65.3291 17.3561 65.6835 17.192L66.1463 16.9718V9.25441ZM75.3312 19.5504C75.2208 19.6603 75.1943 19.6332 75.1134 19.5783L72.9138 17.5909C72.6414 17.3695 72.6414 17.3145 72.6414 16.9553V9.3364C72.6414 9.19906 72.6414 9.17036 72.5063 9.0601L72.2343 8.81236C71.9622 8.56388 71.8535 8.61886 71.5006 8.78373L70.9562 9.03258C70.8753 9.0601 70.794 8.95014 70.9295 8.81236L73.8099 6.35506C73.9198 6.24514 73.9198 6.27223 73.9995 6.32758L75.739 7.95546C75.9568 8.17688 76.065 8.31466 76.065 8.6734V16.1836C76.065 16.2935 76.0385 16.4038 76.1467 16.4862L76.7716 17.0377C76.9357 17.1755 77.2066 17.3419 77.4495 17.2591L77.6673 17.1755C77.9397 17.0652 77.9934 17.2305 77.8315 17.369L75.3312 19.5504ZM73.8821 5.83572C73.8041 5.91737 73.7762 5.89029 73.6969 5.83572L71.6784 4.00176C71.6254 3.94563 71.6254 3.89106 71.7051 3.80941L73.6969 2.00292C73.7762 1.94836 73.8041 1.94836 73.8821 2.00292L75.9002 3.83689C75.9797 3.89146 75.9797 3.94602 75.9002 4.00176L73.8821 5.83572ZM81.2194 19.552C81.1104 19.66 81.0839 19.6332 81.0022 19.5791L78.8001 17.6269C78.5292 17.4095 78.5292 17.3553 78.5292 17.0028V4.96467C78.5292 4.82963 78.5292 4.80098 78.3938 4.69302L78.1222 4.44847C77.8499 4.20549 77.7417 4.25927 77.3884 4.42296L76.8452 4.66594C76.7628 4.69302 76.6818 4.58468 76.8187 4.44847L79.698 2.0359C79.8062 1.92795 79.8062 1.95503 79.8887 2.0092L81.6264 3.6096C81.8443 3.8259 81.9532 3.96133 81.9532 4.31344V16.2452C81.9532 16.3532 81.926 16.4615 82.0356 16.5423L82.6598 17.084C82.8217 17.2191 83.0948 17.3828 83.3376 17.3015L83.557 17.2191C83.8278 17.1108 83.8816 17.2729 83.7189 17.4095L81.2194 19.552ZM93.558 21.4397L90.6066 23.8892C90.5271 23.9713 90.4719 23.9454 90.4204 23.9163C88.8629 22.8427 87.6308 22.3477 86.2891 22.3477C85.3499 22.3477 84.4122 22.5393 83.2037 22.8702C83.097 22.8988 83.0697 22.8152 83.1235 22.7331C84.3835 20.7791 85.9402 20.1741 87.3894 20.1741C89.5342 20.1741 91.5457 21.5222 92.3509 22.0718L92.4304 22.0168C92.6439 21.5218 92.7263 21.0527 92.7263 20.6127C92.7263 19.2097 91.5995 18.0811 90.2047 17.3651L87.3342 19.5402C87.2003 19.6226 87.1738 19.6226 87.0935 19.5677L85.1622 17.7781C84.8936 17.5296 84.8936 17.5296 84.8936 17.1445V9.41023C84.8936 9.27362 84.8936 9.24573 84.7596 9.13466L84.3828 8.80411C84.1156 8.55725 84.0089 8.61216 83.66 8.77703L83.1227 9.02514C83.0432 9.05259 82.963 8.94307 83.0962 8.80456L85.9395 6.35545C86.0469 6.24554 86.0469 6.27302 86.1272 6.32798L87.951 8.03514C88.1645 8.25497 88.2727 8.39312 88.2727 8.75112V16.2644C88.2727 16.4034 88.2999 16.54 88.3794 16.6224L89.0241 17.2273C89.2111 17.4205 89.56 17.3384 89.7749 17.2273L90.204 17.0354V9.38351C90.204 9.24654 90.204 9.24654 90.07 9.13503L89.6932 8.80456C89.426 8.55762 89.3443 8.58508 88.9689 8.69504L88.7547 8.75156C88.6753 8.77747 88.595 8.66751 88.7283 8.53054L91.2499 6.35545C91.3566 6.24554 91.3566 6.27302 91.4368 6.32798L93.2607 8.03514C93.4763 8.25497 93.583 8.39312 93.583 8.75112V15.9905C94.7091 16.8434 95.1927 17.696 95.1927 18.5495C95.1927 19.5135 94.7364 20.4485 93.5558 21.4401L93.558 21.4397ZM112.222 5.05652C111.738 5.05652 111.333 5.00039 110.875 4.94544V13.0746C110.875 13.2681 110.847 13.3231 110.74 13.4056L106.213 16.3547C106.886 16.6856 107.694 16.9067 108.531 16.9067C111.387 16.9067 114.62 15.307 116.13 11.3117C116.211 11.0907 116.4 11.0357 116.4 11.4213V11.6972C116.4 16.078 113.139 20.0183 108.314 20.0183C103.059 20.0183 99.9047 15.9669 99.9047 11.7517C99.9047 8.58316 101.603 5.63435 105.457 4.3943C105.618 4.33778 105.646 4.42021 105.537 4.50382C103.839 5.85339 102.923 8.0587 102.923 10.2632C102.923 12.6055 103.839 14.9204 105.889 16.1616L107.021 15.3333C107.425 15.059 107.48 14.7555 107.48 14.3147V4.22747C106.239 3.75916 105.134 3.48321 104.11 3.48321C102.709 3.48321 101.443 4.11599 100.204 5.66065C100.067 5.82552 99.9857 5.82552 99.9857 5.66065C100.148 2.54699 102.87 0.782898 105.566 0.782898C108.666 0.782898 111.521 2.32756 114.647 2.32756C115.753 2.32756 116.884 2.0779 117.828 1.55464C117.963 1.49968 117.989 1.6096 117.936 1.71912C116.966 4.19999 114.593 5.05496 112.222 5.05496V5.05652ZM126.115 10.4344L121.369 13.4904V15.8299C121.369 16.0493 121.395 16.1333 121.582 16.2154L123.111 17.0413C123.379 17.1787 123.836 17.3168 124.104 17.1508L125.526 16.299C125.768 16.1604 125.955 16.2428 125.821 16.3544L121.931 19.5747C121.851 19.6568 121.878 19.6297 121.771 19.5747L118.312 17.7023C118.042 17.5653 117.962 17.5092 117.962 17.1249V8.42492C117.962 8.2864 118.014 8.23179 118.176 8.17688L123.837 6.30442C123.917 6.27734 123.997 6.24985 124.052 6.35977L126.17 10.2137C126.225 10.2974 126.225 10.3794 126.115 10.4344ZM121.156 7.84986L121.103 7.87656V13.3455L122.977 11.7101C123.083 11.6262 123.083 11.5685 123.03 11.4856L121.156 7.84986ZM129.895 19.552C129.786 19.66 129.761 19.6332 129.679 19.5791L127.477 17.6269C127.206 17.4095 127.206 17.3553 127.206 17.0028V4.96467C127.206 4.82963 127.206 4.80098 127.069 4.69302L126.799 4.44847C126.527 4.20549 126.417 4.25927 126.065 4.42296L125.521 4.66594C125.439 4.69302 125.357 4.58468 125.494 4.44847L128.373 2.0359C128.481 1.92795 128.481 1.95503 128.564 2.0092L130.303 3.6096C130.521 3.8259 130.63 3.96133 130.63 4.31344V16.2452C130.63 16.3532 130.601 16.4615 130.709 16.5423L131.336 17.084C131.498 17.2191 131.771 17.3828 132.014 17.3015L132.232 17.2191C132.504 17.1108 132.557 17.2729 132.395 17.4095L129.895 19.552ZM141.033 10.4344L136.288 13.4904V15.8299C136.288 16.0493 136.313 16.1333 136.502 16.2154L138.03 17.0413C138.298 17.1787 138.754 17.3168 139.022 17.1508L140.443 16.299C140.685 16.1604 140.872 16.2428 140.738 16.3544L136.849 19.5747C136.77 19.6568 136.797 19.6297 136.689 19.5747L133.229 17.7023C132.96 17.5653 132.879 17.5092 132.879 17.1249V8.42492C132.879 8.2864 132.934 8.23179 133.094 8.17688L138.754 6.30442C138.834 6.27734 138.915 6.24985 138.968 6.35977L141.088 10.2137C141.141 10.2974 141.141 10.3798 141.034 10.4348L141.033 10.4344ZM136.462 7.84986L136.411 7.87656V13.3455L138.287 11.7101C138.393 11.6262 138.393 11.5685 138.339 11.4856L136.462 7.84986ZM150.859 21.4382L147.891 23.8888C147.811 23.9708 147.757 23.9449 147.703 23.9159C146.137 22.8415 144.896 22.3465 143.548 22.3465C142.603 22.3465 141.658 22.5381 140.445 22.8694C140.336 22.898 140.31 22.8144 140.364 22.732C141.631 20.7767 143.197 20.1714 144.655 20.1714C146.813 20.1714 148.835 21.5202 149.646 22.0701L149.727 22.0152C149.941 21.5202 150.023 21.0507 150.023 20.6103C150.023 19.2066 148.891 18.0776 147.487 17.3612L144.572 19.5649C144.465 19.647 144.385 19.6199 144.304 19.5375L142.469 17.8291C142.199 17.5822 142.145 17.4723 142.145 17.1952V9.15468C142.145 9.01609 142.252 8.989 142.307 8.96155L148.512 6.34524C148.675 6.26281 148.781 6.26281 148.835 6.31777L150.563 8.08068C150.778 8.30053 150.886 8.46658 150.886 8.65809V15.9853C152.019 16.8387 152.506 17.6921 152.506 18.5459C152.506 19.5104 152.046 20.4462 150.859 21.4382ZM147.795 9.19906C147.795 9.08837 147.768 9.0063 147.66 8.89715L146.652 7.88205C146.597 7.82592 146.57 7.85458 146.487 7.88205L145.832 8.18314V16.0635C145.832 16.5023 145.943 16.5569 146.378 16.9686C146.624 17.1889 146.758 17.2709 147.006 17.2709C147.224 17.2709 147.577 17.1052 147.795 16.9686V9.19906ZM159.994 9.85103C159.859 9.96217 159.725 10.0171 159.591 10.0171C159.455 10.0171 159.319 9.96217 159.186 9.85103L157.539 8.41903L157.378 8.55644V16.2161C157.378 16.3822 157.378 16.4101 157.486 16.4921L157.917 16.878C158.376 17.2635 158.483 17.3184 158.97 17.1261L159.293 16.9875C159.508 16.905 159.562 17.0146 159.428 17.152L156.648 19.55C156.542 19.66 156.514 19.6324 156.434 19.5775L154.302 17.6215C154.06 17.4005 153.978 17.318 153.978 17.0146V9.16256L153.332 8.47401C153.276 8.41866 153.251 8.41866 153.169 8.47401L152.36 8.94234C152.118 9.07931 152.036 8.88699 152.199 8.74994L154.977 6.35192C155.084 6.26948 155.139 6.26948 155.193 6.32444L157.081 8.22553L158.942 6.35192C159.051 6.26948 159.131 6.24201 159.238 6.35192L160.668 7.70266C160.938 7.94957 161.1 8.08814 161.262 8.08814C161.37 8.08814 161.506 8.03319 161.669 7.92367L162.045 7.67401C162.288 7.50953 162.396 7.75762 162.261 7.89618L159.994 9.85103ZM170.037 19.5488C169.929 19.6588 169.9 19.6313 169.818 19.5764L167.333 17.3702L164.384 19.5764C164.276 19.6583 164.248 19.6313 164.138 19.5488L162.255 17.8389C161.955 17.5916 161.928 17.5351 161.928 17.2042V9.15549C161.928 9.0169 162.036 8.98981 162.091 8.96192L168.428 6.31541C168.536 6.26045 168.645 6.26045 168.753 6.37037L170.447 8.08029C170.694 8.32762 170.775 8.46658 170.775 8.63144V16.4065L171.266 16.8473C171.868 17.3706 171.951 17.3431 172.222 17.2042L172.605 17.0118C172.85 16.8749 173.042 16.9848 172.823 17.1771L170.037 19.5488ZM167.423 9.25441C167.423 9.08873 167.397 9.00711 167.262 8.87006L166.279 7.88205C166.225 7.82592 166.225 7.85458 166.141 7.88205L165.461 8.18314V16.1219C165.461 16.3959 165.515 16.5329 165.706 16.6978L166.06 17.0263C166.305 17.2466 166.606 17.3561 166.961 17.192L167.423 16.9718V9.25441H167.423ZM182.543 17.5339L180.09 19.4648C179.819 19.6843 179.765 19.6293 179.441 19.4374L176.881 17.8377V21.0613L177.608 21.6973C177.689 21.7506 177.689 21.8072 177.608 21.8896L175.478 23.901C175.425 23.9281 175.371 23.983 175.263 23.901L172.891 21.9446C172.81 21.8896 172.838 21.8342 172.891 21.7506L173.485 21.0613V9.21238L172.891 8.46812C172.864 8.43905 172.838 8.43905 172.783 8.46812L171.974 8.8811C171.787 8.99136 171.65 8.85402 171.812 8.7166L174.561 6.34564C174.642 6.26321 174.751 6.26321 174.804 6.31816L176.799 8.32953L180.412 6.34564C180.521 6.29029 180.601 6.31816 180.627 6.34564L182.435 8.05516C182.569 8.19219 182.731 8.41314 182.731 8.66044V17.0939C182.731 17.2874 182.731 17.3973 182.542 17.5343L182.543 17.5339ZM179.592 9.41648C179.592 9.25596 179.541 9.12016 179.438 9.013L178.713 8.28677C178.661 8.2334 178.609 8.2334 178.531 8.25968L177.237 8.77195V17.298L177.962 17.5402C178.556 17.7278 178.816 17.7011 179.075 17.4601L179.334 17.2176C179.567 17.0016 179.592 16.7606 179.592 16.3304V9.41648ZM193.526 19.5516C193.417 19.6595 193.417 19.6329 193.336 19.5787L191.167 17.6536C190.95 17.4629 190.843 17.3012 190.843 16.9482V9.51857C190.843 9.43768 190.843 9.35525 190.733 9.27443L190.001 8.6232C189.92 8.57058 189.812 8.54349 189.704 8.59766L188.32 9.24735V16.2444C188.32 16.3524 188.293 16.4607 188.402 16.5416L189.025 17.0833C189.188 17.2183 189.458 17.382 189.704 17.3007L189.92 17.2183C190.192 17.1099 190.245 17.2721 190.082 17.4087L187.589 19.5512C187.481 19.6592 187.453 19.6324 187.371 19.5783L185.176 17.6262C184.905 17.4087 184.905 17.3545 184.905 17.0021V4.96388C184.905 4.82885 184.905 4.80019 184.769 4.69224L184.498 4.44769C184.226 4.20471 184.119 4.25848 183.767 4.42217L183.224 4.66516C183.143 4.69224 183.06 4.5839 183.197 4.44769L186.069 2.03511C186.179 1.92717 186.179 1.95425 186.26 2.00842L187.995 3.60882C188.213 3.82511 188.32 3.96054 188.32 4.31265V8.84062L191.926 6.5635C192.035 6.50893 192.141 6.50893 192.224 6.59019L193.986 8.2181C194.229 8.43434 194.284 8.59766 194.284 8.86771V16.2974C194.284 16.4336 194.284 16.4607 194.418 16.569L195.098 17.1378C195.368 17.3824 195.476 17.3283 195.829 17.1661L196.372 16.922C196.454 16.8949 196.534 17.0028 196.398 17.1378L193.526 19.5516Z" fill="black"/>
</g>
<defs>
<clipPath id="clip0_141_95">
<rect width="196.517" height="23.5526" fill="white" transform="translate(0.508179 0.782898)"/>
</clipPath>
</defs>
</svg>
