<svg width="61" height="60" viewBox="0 0 61 60" fill="none" xmlns="http://www.w3.org/2000/svg">
<circle cx="30.5" cy="30" r="30" fill="#3DC5BA"/>
<path d="M34.7339 43.3334V42.0157V41.9878C34.7407 41.261 35.3366 40.6735 36.0735 40.6667L36.1735 40.6666C38.0823 40.6514 39.7222 39.3257 40.1116 37.4827L40.1258 37.4135L40.818 34.0001L42.0731 33.3813C42.7448 33.0501 43.0806 32.8845 43.1532 32.5809C43.2259 32.2773 43.0007 31.981 42.5502 31.3886L40.0068 28.0445C39.7538 27.7117 39.6272 27.5453 39.5594 27.3693C39.4916 27.1932 39.4707 26.9437 39.4291 26.4448C38.9711 20.9695 34.3199 16.6667 28.6498 16.6667C22.676 16.6667 17.8334 21.4424 17.8334 27.3334C17.8334 30.9997 19.709 34.2338 22.5655 36.1538M22.5655 36.1538V43.3334M22.5655 36.1538C23.392 36.7093 24.3006 37.1547 25.2696 37.4689" stroke="white" stroke-width="2" stroke-linecap="round" stroke-linejoin="round"/>
<path d="M33.1666 26L34.3932 27.0572C34.9088 27.5016 35.1666 27.7239 35.1666 28C35.1666 28.2761 34.9088 28.4984 34.3932 28.9428L33.1666 30" stroke="white" stroke-width="2" stroke-linecap="round" stroke-linejoin="round"/>
<path d="M23.8334 26L22.6068 27.0572C22.0912 27.5016 21.8334 27.7239 21.8334 28C21.8334 28.2761 22.0912 28.4984 22.6068 28.9428L23.8334 30" stroke="white" stroke-width="2" stroke-linecap="round" stroke-linejoin="round"/>
<path d="M29.8333 24.6667L27.1666 31.3334" stroke="white" stroke-width="2" stroke-linecap="round" stroke-linejoin="round"/>
</svg>
