<svg width="135" height="25" viewBox="0 0 135 25" fill="none" xmlns="http://www.w3.org/2000/svg">
<g clip-path="url(#clip0_141_97)">
<path fill-rule="evenodd" clip-rule="evenodd" d="M9.98257 6.376H7.26595L7.28129 3.4294L3.26012 4.03743V6.31364L1.43372 6.59427V8.40276H3.32152L3.30617 16.3383C3.31941 16.6238 3.77068 19.1989 6.5139 19.0355C9.62552 18.8501 9.89042 18.4898 10.1667 18.3027C10.1448 18.3259 10.1667 16.7593 10.1667 16.7593L8.47844 16.806C8.47844 16.806 7.52686 16.7437 7.37338 15.6679C7.3675 15.6688 7.34269 8.43396 7.34269 8.43396L9.98257 8.44957V6.376Z" fill="black"/>
<path fill-rule="evenodd" clip-rule="evenodd" d="M15.8934 0.782898L10.4313 1.56417L10.439 2.6033L11.8904 3.24987L11.9059 16.8509L10.5317 17.3897L10.5471 18.5058L17.2484 18.5135V17.4051L15.8973 16.8201L15.9051 8.77651C15.9051 8.77651 16.6693 8.4378 17.727 8.4378C18.7847 8.4378 19.2711 9.11516 19.2711 9.53086V16.8432L18.0358 17.3897V18.5135H24.7217V17.4359L23.3475 16.7662V8.52251C23.3475 8.52251 23.3783 5.90543 20.3365 6.03628C18.4858 6.04744 17.1751 6.62896 15.8857 7.645C15.8857 7.64115 15.8857 0.790596 15.8934 0.782898Z" fill="black"/>
<path fill-rule="evenodd" clip-rule="evenodd" d="M32.3869 11.2172L28.9563 11.3686C28.9563 11.3686 28.9336 9.64987 29.2831 8.5585C29.5619 7.68762 30.1259 7.40007 30.7763 7.3991C31.8598 7.39748 32.1305 7.99319 32.2523 8.72499C32.4276 9.77816 32.3987 11.2055 32.3869 11.2172ZM36.3364 12.8678H28.917C28.917 12.8678 28.873 16.4687 32.7038 16.4948C34.3219 16.5058 35.8631 16.0435 35.8631 16.0435V17.2048C35.8631 17.2048 34.6742 18.933 31.3938 19.0431C27.2416 18.9791 25.0312 17.3855 24.7229 13.0989C24.6899 10.4461 25.3674 6.34143 30.7333 6.08707C36.2091 5.82752 36.4929 10.154 36.3364 12.8678Z" fill="black"/>
<path fill-rule="evenodd" clip-rule="evenodd" d="M44.826 9.90232V11.0842C44.826 11.0842 45.0245 13.2132 43.4514 13.221C41.8783 13.2289 41.9241 11.9844 41.9241 11.0842V9.69101C41.9241 9.69101 41.8325 7.67158 43.3215 7.66376C44.8106 7.65593 44.8183 9.23704 44.826 9.90232ZM49.6867 6.09141L46.2977 6.71891C46.2977 6.71891 44.5376 6.07591 43.2869 6.07591C42.4454 6.07591 38.1066 6.41062 37.9484 10.2332C37.8367 12.932 40.1064 13.9391 40.0909 13.9391C40.0755 13.9391 37.9294 15.2716 37.9139 16.9295C37.8985 18.5874 39.8593 19.0522 39.8593 19.0522C39.8633 19.0116 36.8946 19.5044 36.8949 21.5312C36.8952 23.4061 39.9829 24.3201 43.256 24.3356C46.5292 24.3511 50.1267 23.4215 50.1267 19.5325C50.1267 15.6435 46.3594 16.0928 46.3594 16.0928H41.5114C41.5114 16.0928 40.7857 16.0153 40.7548 15.2716C40.724 14.5279 41.2489 14.342 41.2489 14.342C41.2489 14.342 42.2834 14.6519 43.3641 14.6519C44.4449 14.6519 48.6908 14.2026 48.6908 10.5149C48.6908 8.83981 47.3785 7.88096 47.3785 7.88096L49.7264 8.51228L49.6867 6.09141ZM40.8818 19.8451C40.8818 19.8451 40.3352 20.2239 40.3352 21.1427C40.3352 22.0616 41.1358 23.0126 43.3684 23.0126C45.601 23.0126 46.6865 22.1989 46.6865 20.8364C46.6865 19.9497 45.7241 19.837 45.7241 19.837L40.8818 19.8451Z" fill="black"/>
<path fill-rule="evenodd" clip-rule="evenodd" d="M55.5591 6.07591L50.1267 6.93104V8.00383L51.5232 8.68789V15.6067C51.5232 15.6067 51.5958 19.0044 54.8838 19.0427C57.554 19.0738 58.889 17.1925 58.889 17.1925V19.0116L64.1525 18.3741V17.3946L62.8074 16.6078V6.107L57.4005 6.96213V7.98828L58.8276 8.71903V16.1042C58.8276 16.1042 58.4593 16.4151 57.2777 16.5084C56.0961 16.6017 55.5591 15.4667 55.5591 15.4667V6.07591Z" fill="black"/>
<path fill-rule="evenodd" clip-rule="evenodd" d="M65.241 7.02954C65.241 7.02954 67.8492 6.07591 69.999 6.07591C72.1489 6.07591 75.2594 6.81031 75.2594 9.49582V16.9385L76.5908 17.64V18.5279C76.5908 18.5279 75.6414 19.0431 74.2442 19.0431C72.8473 19.0431 71.636 18.3306 71.636 17.2564C71.3324 17.2619 71.2219 19.0212 67.9474 19.0212C64.1279 19.0212 64.4225 15.6232 64.4225 15.5574C64.4225 15.4917 64.3127 13.0208 67.0962 12.4883C69.8463 11.9621 71.1231 11.7539 71.1231 11.7539L71.1097 9.2547C71.1097 9.2547 70.883 7.74202 69.5844 7.75299C68.2857 7.76394 68.2966 7.7749 68.2966 7.7749L67.38 10.2851H65.2301L65.241 7.02954ZM71.0331 16.2411V12.9645C71.0331 12.9645 68.3919 12.7251 68.3868 14.8635C68.3829 16.4733 69.3835 16.6613 69.8389 16.6613C70.3598 16.6277 70.7055 16.4423 71.0331 16.2411Z" fill="black"/>
<path fill-rule="evenodd" clip-rule="evenodd" d="M82.2148 6.07591L76.8551 6.92496V8.04965L78.2359 8.71122V17.0584L76.9537 17.7199V18.7784H84.0129V17.764L82.3245 17.0804L82.3355 10.1888C82.3355 10.1888 83.4094 9.7588 84.495 9.7588C85.5799 9.7588 86.1172 9.88002 86.1172 9.88002V6.27439C86.1172 6.27439 83.8201 5.55064 82.1927 8.77739C82.1927 8.78843 82.2148 6.07591 82.2148 6.07591Z" fill="black"/>
<path fill-rule="evenodd" clip-rule="evenodd" d="M92.7046 1.90376V2.9907L94.0368 3.63847V6.58086C94.0368 6.58086 93.105 6.13072 91.9789 6.13072C90.8521 6.13072 86.2497 6.30638 86.1195 12.7182C85.9899 19.13 90.9065 19.0421 90.8631 19.0421C90.8197 19.0421 93.1161 19.108 94.1553 17.7466C94.1502 17.7466 94.145 19.0367 94.145 19.0367L99.3487 18.3944V17.3514L98.0982 16.7036L98.0871 1.04739L92.7046 1.90376ZM94.056 8.3792V16.7062C94.056 16.7062 93.6173 16.9256 92.7988 16.9256C91.4689 16.9256 90.3435 16.0289 90.3516 13.1406C90.3582 10.6173 90.7299 8.63482 91.8442 8.11582C92.9578 7.59702 94.0044 8.30979 94.056 8.3792Z" fill="black"/>
<path fill-rule="evenodd" clip-rule="evenodd" d="M105.171 3.03231C105.171 4.27398 104.164 5.28172 102.922 5.28172C101.68 5.28172 100.673 4.27398 100.673 3.03231C100.673 1.79063 101.68 0.782898 102.922 0.782898C104.164 0.782898 105.171 1.79063 105.171 3.03231ZM105.228 6.07562L99.6144 6.85491V7.90923L101.084 8.61209V16.8021L99.7395 17.3981V18.5135H106.495V17.444L105.213 16.8328L105.228 6.07562Z" fill="black"/>
<path fill-rule="evenodd" clip-rule="evenodd" d="M107.583 7.02954C107.583 7.02954 110.19 6.07591 112.34 6.07591C114.49 6.07591 117.601 6.81031 117.601 9.49582V16.9385L118.932 17.64V18.5279C118.932 18.5279 117.982 19.0431 116.586 19.0431C115.189 19.0431 113.977 18.3306 113.977 17.2564C113.674 17.2619 113.563 19.0212 110.289 19.0212C106.469 19.0212 106.764 15.6232 106.764 15.5574C106.764 15.4917 106.654 13.0208 109.437 12.4883C112.188 11.9621 113.465 11.7539 113.465 11.7539L113.451 9.2547C113.451 9.2547 113.224 7.74202 111.926 7.75299C110.627 7.76394 110.638 7.7749 110.638 7.7749L109.721 10.2851H107.571L107.583 7.02954ZM113.374 16.2411V12.9645C113.374 12.9645 110.733 12.7251 110.728 14.8635C110.725 16.4733 111.725 16.6613 112.18 16.6613C112.701 16.6277 113.047 16.4423 113.374 16.2411Z" fill="black"/>
<path fill-rule="evenodd" clip-rule="evenodd" d="M124.627 6.07591L119.197 6.94552V7.98595L120.658 8.68473V17.0703L119.32 17.6138V18.7784H125.965V17.6294L124.735 17.0392V8.93321C124.735 8.93321 125.396 8.62261 126.365 8.62261C127.334 8.62261 128.088 9.05745 128.088 10.0202V17.0392L126.725 17.7156L126.719 18.7474H133.487V17.6449L132.164 17.0858V9.30593C132.164 9.30593 132.257 6.20014 129.134 6.20014C126.012 6.20014 124.642 7.86172 124.642 7.86172L124.627 6.07591Z" fill="black"/>
</g>
<defs>
<clipPath id="clip0_141_97">
<rect width="133.22" height="23.5526" fill="white" transform="translate(0.882324 0.782898)"/>
</clipPath>
</defs>
</svg>
