<svg width="99" height="25" viewBox="0 0 99 25" fill="none" xmlns="http://www.w3.org/2000/svg">
<g clip-path="url(#clip0_141_109)">
<path d="M97.5622 12.5592C97.5622 6.04802 92.2967 0.782898 86.0309 0.782898C79.7696 0.782898 74.5047 6.04802 74.5047 12.5592C74.5047 19.0704 79.7696 24.3355 86.0309 24.3355C92.2967 24.3355 97.5622 19.0704 97.5622 12.5592ZM91.582 12.5592C91.582 15.6131 89.0898 18.2941 86.0309 18.2941C83.0074 18.2941 80.4902 15.7357 80.4902 12.5592C80.4902 9.38277 83.0125 6.82426 86.0309 6.82426C89.0898 6.82426 91.582 9.50532 91.582 12.5592ZM74.2239 23.7789L69.924 14.0555C71.89 12.7482 72.9778 10.9403 72.9778 8.54018C72.9778 3.77039 69.8933 1.33954 65.435 1.33954H57.7391V23.7738H63.5966V14.5203H63.6579L67.6157 23.7789H74.2239ZM67.1203 9.10191C67.1203 11.1293 65.7772 11.8749 63.5966 11.8749V6.3289C65.7772 6.3289 67.1203 7.0745 67.1203 9.10191ZM51.4781 7.01321H56.064L55.4665 1.33954H41.6322L41.0449 7.01321H45.6257V23.7789H51.4781V7.01321ZM33.0681 17.8601V15.5212H37.6795V9.6024H33.0681V7.26856H40.141L39.2319 1.34465H27.2054V23.7789H39.3903L40.9172 17.8601H33.0681Z" fill="black"/>
<path d="M17.4563 1.33903L13.3759 10.0308L9.29043 1.30328H4.61772L1.5332 23.7375H7.51839L8.82571 14.5146H8.88702L13.3759 23.8958L17.8801 14.5401L19.2283 23.7784H25.2135L22.129 1.33903H17.4563Z" fill="black"/>
</g>
<defs>
<clipPath id="clip0_141_109">
<rect width="97.1546" height="23.5526" fill="white" transform="translate(0.958862 0.782898)"/>
</clipPath>
</defs>
</svg>
