<svg width="48" height="47" viewBox="0 0 48 47" fill="none" xmlns="http://www.w3.org/2000/svg">
<rect x="0.615967" y="0.12915" width="46.7682" height="46.7682" rx="23.3841" fill="#FBE8FF"/>
<path d="M23.3529 33.2395C22.5111 33.2395 21.716 33.0758 20.9677 32.7484C20.2194 32.4211 19.5686 31.9573 19.0152 31.3571C18.4695 30.7569 18.0759 30.0476 17.8343 29.2291L20.5585 28.4925C20.7534 29.1629 21.108 29.6812 21.6225 30.0476C22.1447 30.4061 22.7176 30.5815 23.3412 30.5737C23.8947 30.5737 24.3896 30.4451 24.8261 30.1879C25.2626 29.9307 25.6056 29.5838 25.855 29.1473C26.1044 28.703 26.2292 28.208 26.2292 27.6624C26.2292 26.8284 25.9602 26.1307 25.4224 25.5695C24.8846 25.0083 24.1908 24.7277 23.3412 24.7277C23.084 24.7277 22.8307 24.7628 22.5812 24.8329C22.3396 24.9031 22.1058 25.0005 21.8797 25.1252L20.5936 22.9037L26.2525 18.0632L26.4981 18.7414H18.489V16.0873H28.8131V18.7531L24.2649 23.1259L24.2415 22.2957C25.2626 22.3659 26.1317 22.6504 26.8488 23.1493C27.5738 23.6481 28.1272 24.2912 28.5091 25.0785C28.8989 25.8657 29.0937 26.727 29.0937 27.6624C29.0937 28.7225 28.8326 29.6734 28.3104 30.5153C27.7959 31.3571 27.1022 32.0235 26.2292 32.5146C25.364 32.9979 24.4052 33.2395 23.3529 33.2395Z" fill="#BA24D5"/>
</svg>
