<svg width="47" height="47" viewBox="0 0 47 47" fill="none" xmlns="http://www.w3.org/2000/svg">
<rect x="0.115845" width="46.7682" height="46.7682" rx="23.3841" fill="#FBE8FF"/>
<path d="M17.3966 32.7713V30.316L24.5989 23.897C25.1601 23.3982 25.5499 22.9266 25.7681 22.4823C25.9864 22.038 26.0955 21.6093 26.0955 21.1962C26.0955 20.6349 25.9747 20.1361 25.733 19.6996C25.4914 19.2553 25.1562 18.9045 24.7275 18.6473C24.3066 18.3901 23.8194 18.2614 23.266 18.2614C22.6814 18.2614 22.1631 18.3979 21.711 18.6707C21.2667 18.9357 20.9198 19.2903 20.6704 19.7346C20.4209 20.1789 20.304 20.6583 20.3196 21.1728H17.42C17.42 20.0503 17.6694 19.0721 18.1683 18.2381C18.6749 17.404 19.3687 16.7571 20.2495 16.2972C21.1381 15.8373 22.1631 15.6073 23.3245 15.6073C24.4001 15.6073 25.3667 15.849 26.2241 16.3323C27.0815 16.8077 27.7558 17.4703 28.2468 18.3199C28.7379 19.1617 28.9834 20.1322 28.9834 21.2312C28.9834 22.0341 28.8743 22.7083 28.656 23.254C28.4378 23.7996 28.1104 24.3023 27.6739 24.7622C27.2452 25.2221 26.7113 25.7327 26.0721 26.2939L20.9627 30.8187L20.7054 30.1172H28.9834V32.7713H17.3966Z" fill="#BA24D5"/>
</svg>
